# xmcd CD database file
#
# Track frame offsets:
#	150
#	50427
#	71010
#	97957
#	137732
#	182027
#	253157
#	298632
#
# Disc length: 4670 seconds
#
# Revision: 3
# Processed by: cddbd v1.5.2PL0 Copyright (c) Steve Scherf et al.
# Submitted via: CDex 1.70beta2
#
DISCID=76123c08
DTITLE=Miles Davis - The Complete Jack Johnson Sessions Disc-3
DYEAR=2003
DGENRE=Jazz
TTITLE0=Right Off (take 10) (Apr 7, 1970)
TTITLE1=Right Off (take 10a) (Apr 7, 1970)
TTITLE2=Right Off (take 11) (Apr 7, 1970)
TTITLE3=Right Off (take 12) (Apr 7, 1970)
TTITLE4=Yesternow (take 16) (Apr 7, 1970)
TTITLE5=Yesternow (new take 4) (Apr 7, 1970)
TTITLE6=Honky Tonk (take 2) (Get Up With It, May 19, 1970)
TTITLE7=Honky Tonk (take 5)  (Get Up With It, May 19, 1970)
EXTD=YEAR: 2003
EXTT0=
EXTT1=
EXTT2=
EXTT3=
EXTT4=
EXTT5=
EXTT6=
EXTT7=
PLAYORDER=
